# xmcd CD database file
#
# Track frame offsets:
#	150
#	16392
#	36652
#
# Disc length: 703 seconds
#
# Revision: 2
# Processed by: cddbd v1.5PL3 Copyright (c) Steve Scherf et al.
# Submitted via: CDex 1.51
#
DISCID=2102bd03
DTITLE=ゆうこ＆のはらしんのすけ - しんちゃん音頭 オラといっしょにおどろうよ！
DYEAR=1994
DGENRE=Anime
TTITLE0=しんちゃん音頭 オラといっしょにおどろうよ！
TTITLE1=しんちゃん”てくの”音頭
TTITLE2=しんちゃん音頭 オラといっしょにおどろうよ！（カラオケ）
EXTD=YEAR: 1994
EXTT0=
EXTT1=(Remix)
EXTT2=
PLAYORDER=
